<?xml version="1.0" encoding="utf-8"?>
<!-- Generator: Adobe Illustrator 20.0.0, SVG Export Plug-In . SVG Version: 6.00 Build 0)  -->
<svg version="1.1" id="Layer_1" xmlns="http://www.w3.org/2000/svg" xmlns:xlink="http://www.w3.org/1999/xlink" x="0px" y="0px"
	 viewBox="0 0 1000 1000" style="enable-background:new 0 0 1000 1000;" xml:space="preserve">
<style type="text/css">
	.st0{clip-path:url(#SVGID_2_);}
	.st1{fill:#010101;}
	.st2{font-family:'Roboto-Light';}
	.st3{font-size:100.8462px;}
	.st4{clip-path:url(#SVGID_4_);}
	.st5{clip-path:url(#SVGID_6_);fill:#E71B43;}
</style>
<g>
	<defs>
		<rect id="SVGID_1_" x="33.1" y="403.3" width="933.8" height="193.5"/>
	</defs>
	<clipPath id="SVGID_2_">
		<use xlink:href="#SVGID_1_"  style="overflow:visible;"/>
	</clipPath>
	<g class="st0">
		<path class="st1" d="M250.8,416.9l23.4,58.5l23.4-58.5H310v71.7h-9.5v-27.9l0.9-30.1l-23.5,58.1h-7.2l-23.5-57.9l0.9,30v27.9h-9.5
			v-71.7H250.8z"/>
		<path class="st1" d="M375.3,469.9h-30l-6.7,18.8h-9.7l27.4-71.7h8.3l27.4,71.7h-9.7L375.3,469.9z M348.2,462.1h24.4l-12.2-33.5
			L348.2,462.1z"/>
		<path class="st1" d="M431.7,456.7c-8.1-2.3-14-5.2-17.7-8.6c-3.7-3.4-5.5-7.6-5.5-12.6c0-5.6,2.3-10.3,6.8-14
			c4.5-3.7,10.4-5.5,17.6-5.5c4.9,0,9.3,1,13.2,2.9c3.9,1.9,6.8,4.5,9,7.9c2.1,3.3,3.2,7,3.2,11h-9.5c0-4.3-1.4-7.8-4.1-10.3
			c-2.8-2.5-6.6-3.7-11.7-3.7c-4.7,0-8.3,1-10.9,3.1c-2.6,2.1-3.9,4.9-3.9,8.6c0,2.9,1.2,5.4,3.7,7.4c2.5,2,6.7,3.9,12.7,5.5
			c6,1.7,10.6,3.5,14,5.5c3.4,2,5.9,4.4,7.5,7.1c1.6,2.7,2.4,5.9,2.4,9.5c0,5.8-2.3,10.5-6.8,14s-10.6,5.2-18.2,5.2
			c-4.9,0-9.5-0.9-13.8-2.8c-4.3-1.9-7.6-4.5-9.9-7.8c-2.3-3.3-3.5-7-3.5-11.2h9.5c0,4.3,1.6,7.8,4.8,10.3s7.5,3.8,12.8,3.8
			c5,0,8.8-1,11.5-3.1c2.7-2,4-4.8,4-8.3s-1.2-6.2-3.7-8.1C442.7,460.4,438.2,458.5,431.7,456.7z"/>
		<path class="st1" d="M529.1,424.7h-23v64h-9.4v-64h-23v-7.7h55.4V424.7z"/>
		<path class="st1" d="M589.4,455.5h-31.1v25.4h36.1v7.7h-45.5v-71.7h45.1v7.7h-35.6v23.1h31.1V455.5z"/>
	</g>
	<g class="st0">
		<path class="st1" d="M641.9,459.6h-16.8v29h-9.5v-71.7h23.7c8.1,0,14.3,1.8,18.6,5.5c4.3,3.7,6.5,9,6.5,16.1
			c0,4.5-1.2,8.4-3.6,11.7c-2.4,3.3-5.8,5.8-10.1,7.4l16.8,30.4v0.6h-10.1L641.9,459.6z M625.1,451.9h14.5c4.7,0,8.4-1.2,11.2-3.7
			c2.8-2.4,4.2-5.7,4.2-9.8c0-4.4-1.3-7.8-4-10.2c-2.6-2.4-6.5-3.6-11.4-3.6h-14.5V451.9z"/>
		<path class="st1" d="M677.3,437.1l-5.2-3.5c3.1-4.3,4.6-8.8,4.7-13.5V413h9v6.4c0,3.3-0.8,6.6-2.4,9.8
			C681.9,432.5,679.8,435.1,677.3,437.1z"/>
	</g>
	<g class="st0">
		<path class="st1" d="M720,456.7c-8.1-2.3-14-5.2-17.7-8.6c-3.7-3.4-5.5-7.6-5.5-12.6c0-5.6,2.3-10.3,6.8-14
			c4.5-3.7,10.4-5.5,17.6-5.5c4.9,0,9.3,1,13.2,2.9c3.9,1.9,6.8,4.5,9,7.9c2.1,3.3,3.2,7,3.2,11h-9.5c0-4.3-1.4-7.8-4.1-10.3
			c-2.8-2.5-6.6-3.7-11.7-3.7c-4.7,0-8.3,1-10.9,3.1c-2.6,2.1-3.9,4.9-3.9,8.6c0,2.9,1.2,5.4,3.7,7.4c2.5,2,6.7,3.9,12.7,5.5
			c6,1.7,10.6,3.5,14,5.5s5.9,4.4,7.5,7.1c1.6,2.7,2.4,5.9,2.4,9.5c0,5.8-2.3,10.5-6.8,14s-10.6,5.2-18.2,5.2
			c-4.9,0-9.5-0.9-13.8-2.8c-4.3-1.9-7.6-4.5-9.9-7.8c-2.3-3.3-3.5-7-3.5-11.2h9.5c0,4.3,1.6,7.8,4.8,10.3c3.2,2.5,7.5,3.8,12.8,3.8
			c5,0,8.8-1,11.5-3.1c2.7-2,4-4.8,4-8.3s-1.2-6.2-3.7-8.1S726.4,458.5,720,456.7z"/>
	</g>
	<g class="st0">
		<text transform="matrix(1 0 0 1 759.5089 488.6151)" class="st1 st2 st3"> </text>
	</g>
	<g class="st0">
		<path class="st1" d="M262.2,555.5h-21.7l-4.9,13.4h-4.2l18.1-47.8h3.8l18.1,47.8h-4.2L262.2,555.5z M241.7,552.1h19.2l-9.6-26
			L241.7,552.1z"/>
		<path class="st1" d="M316.4,554c-0.5,5-2.3,8.9-5.4,11.6c-3.1,2.7-7.1,4-12.2,4c-3.5,0-6.7-0.9-9.4-2.7c-2.7-1.8-4.8-4.3-6.3-7.5
			c-1.5-3.2-2.2-7-2.3-11.1v-6.2c0-4.2,0.7-8,2.2-11.3c1.5-3.3,3.6-5.8,6.4-7.6c2.8-1.8,6-2.7,9.6-2.7c5.1,0,9.2,1.4,12.1,4.1
			c3,2.8,4.7,6.6,5.2,11.5h-4.1c-1-8.1-5.4-12.2-13.2-12.2c-4.3,0-7.8,1.6-10.4,4.9c-2.6,3.2-3.9,7.7-3.9,13.4v5.8
			c0,5.5,1.3,9.9,3.8,13.2c2.5,3.3,5.9,4.9,10.2,4.9c4.2,0,7.4-1,9.6-3c2.1-2,3.5-5.1,4-9.1H316.4z"/>
		<path class="st1" d="M356.1,555.5h-21.7l-4.9,13.4h-4.2l18.1-47.8h3.8l18.1,47.8h-4.2L356.1,555.5z M335.7,552.1h19.2l-9.6-26
			L335.7,552.1z"/>
		<path class="st1" d="M376.5,568.9v-47.8h13.4c3.9,0,7.4,0.9,10.5,2.7c3.1,1.8,5.5,4.3,7.3,7.7c1.7,3.3,2.6,7.1,2.6,11.4v4.4
			c0,4.3-0.9,8.1-2.6,11.4c-1.7,3.3-4.2,5.9-7.3,7.6c-3.1,1.8-6.7,2.7-10.8,2.7H376.5z M380.5,524.6v41h9.1c5,0,9.1-1.7,12.1-5
			c3-3.3,4.6-7.9,4.6-13.6v-4.2c0-5.5-1.5-9.9-4.5-13.2c-3-3.3-6.9-5-11.9-5H380.5z"/>
		<path class="st1" d="M451.1,546h-22.4v19.5h25.7v3.4h-29.7v-47.8h29.6v3.4h-25.5v18.1h22.4V546z"/>
		<path class="st1" d="M472.4,521.1l17.6,42.2l17.7-42.2h5.4v47.8h-4v-20.8l0.3-21.3l-17.8,42.2h-3.1l-17.7-42l0.3,21v20.9h-4v-47.8
			H472.4z"/>
		<path class="st1" d="M543.4,547.2l14.6-26.1h4.7L545.5,551v18h-4v-18l-17.2-29.8h4.8L543.4,547.2z"/>
		<path class="st1" d="M601.6,542.9c-1.9-2.3-3.3-4.3-4.2-6.2s-1.3-3.6-1.3-5.4c0-3.3,1-6,3-7.9c2-1.9,4.7-2.9,8-2.9
			c3,0,5.5,0.9,7.4,2.6c1.9,1.8,2.8,4,2.8,6.7c0,3.2-1.8,6.2-5.4,9.3l-5.3,4.1l13.1,15.3c2-3.2,3-6.9,3-10.9h3.6
			c0,5.4-1.4,10-4.2,13.8l6.5,7.6H624l-4.1-4.8c-1.7,1.7-3.7,3-6,4c-2.3,1-4.7,1.4-7.2,1.4c-4.6,0-8.2-1.2-10.8-3.5
			c-2.7-2.3-4-5.4-4-9.3c0-2.3,0.7-4.5,2.1-6.6c1.4-2.1,3.8-4.4,7.2-7L601.6,542.9z M606.7,566.3c2,0,3.9-0.4,5.8-1.3
			c1.9-0.8,3.5-2,5-3.6l-13.4-15.5l-0.5-0.5l-1.5,1.1c-4.3,3.5-6.4,6.9-6.4,10.2c0,2.9,1,5.2,3,6.9
			C600.7,565.4,603.4,566.3,606.7,566.3z M600.1,531.2c0,2.7,1.5,5.8,4.4,9.5l4.3-3.3c1.4-1,2.5-2.1,3.4-3.3
			c0.9-1.2,1.3-2.6,1.3-4.2c0-1.7-0.6-3.1-1.8-4.3c-1.2-1.1-2.8-1.7-4.7-1.7c-2.1,0-3.9,0.7-5.1,2.1
			C600.7,527.3,600.1,529.1,600.1,531.2z"/>
		<path class="st1" d="M694.3,554c-0.5,5-2.3,8.9-5.4,11.6c-3.1,2.7-7.1,4-12.2,4c-3.5,0-6.7-0.9-9.4-2.7c-2.7-1.8-4.8-4.3-6.3-7.5
			c-1.5-3.2-2.2-7-2.3-11.1v-6.2c0-4.2,0.7-8,2.2-11.3s3.6-5.8,6.4-7.6c2.8-1.8,6-2.7,9.6-2.7c5.1,0,9.2,1.4,12.1,4.1
			s4.7,6.6,5.2,11.5h-4.1c-1-8.1-5.4-12.2-13.2-12.2c-4.3,0-7.8,1.6-10.4,4.9c-2.6,3.2-3.9,7.7-3.9,13.4v5.8c0,5.5,1.3,9.9,3.8,13.2
			s5.9,4.9,10.2,4.9c4.2,0,7.4-1,9.6-3c2.1-2,3.5-5.1,4-9.1H694.3z"/>
		<path class="st1" d="M743.6,547.6c0,4.4-0.8,8.3-2.3,11.6c-1.5,3.3-3.7,5.9-6.5,7.7c-2.8,1.8-6.1,2.7-9.8,2.7
			c-5.6,0-10.1-2-13.5-6c-3.4-4-5.2-9.4-5.2-16.2v-4.9c0-4.4,0.8-8.2,2.3-11.6s3.7-5.9,6.5-7.7s6.1-2.7,9.8-2.7s6.9,0.9,9.7,2.7
			c2.8,1.8,5,4.3,6.5,7.5c1.5,3.2,2.3,7,2.4,11.3V547.6z M739.5,542.5c0-5.8-1.3-10.3-3.9-13.5s-6.2-4.9-10.7-4.9
			c-4.4,0-8,1.6-10.6,4.9c-2.6,3.3-4,7.8-4,13.7v5c0,5.7,1.3,10.2,3.9,13.5c2.6,3.3,6.2,5,10.7,5c4.6,0,8.1-1.6,10.7-4.9
			s3.8-7.8,3.8-13.7V542.5z"/>
		<path class="st1" d="M762,565.5h23.6v3.4h-27.7v-47.8h4.1V565.5z"/>
		<path class="st1" d="M801.6,565.5h23.6v3.4h-27.7v-47.8h4.1V565.5z"/>
		<path class="st1" d="M863.5,546h-22.4v19.5h25.7v3.4h-29.7v-47.8h29.6v3.4h-25.5v18.1h22.4V546z"/>
		<path class="st1" d="M914,563.3c-1.4,2-3.6,3.5-6.6,4.7s-6.3,1.7-10,1.7c-3.7,0-7.1-0.9-10-2.7c-2.9-1.8-5.2-4.3-6.8-7.6
			c-1.6-3.3-2.4-7-2.4-11.3v-6c0-6.6,1.7-11.9,5-15.7c3.3-3.8,7.8-5.8,13.5-5.8c4.9,0,8.9,1.3,11.9,3.8c3,2.5,4.8,6,5.4,10.4h-4
			c-0.6-3.5-2-6.2-4.3-8c-2.3-1.8-5.2-2.7-8.9-2.7c-4.5,0-8,1.6-10.6,4.8c-2.6,3.2-3.9,7.7-3.9,13.4v5.7c0,3.6,0.6,6.9,1.9,9.6
			c1.2,2.8,3,5,5.3,6.5c2.3,1.5,5,2.3,8,2.3c3.5,0,6.5-0.5,9-1.6c1.6-0.7,2.8-1.6,3.6-2.5v-12.3h-12.8v-3.4H914V563.3z"/>
		<path class="st1" d="M956,546h-22.4v19.5h25.7v3.4h-29.7v-47.8h29.6v3.4h-25.5v18.1H956V546z"/>
	</g>
</g>
<g>
	<defs>
		<path id="SVGID_3_" d="M38.2,596.1c-4,1.8-6.1-0.2-4.6-4.4l72.5-185.3c1.6-4.2,4.3-4.2,5.9,0l71.9,185.3c1.5,4.2-0.6,6.2-4.6,4.4
			L121.9,571c-4.9-2.1-8.9-8.1-9.1-13.4l-4.1-134.3l-3.7,134.2c-0.1,5.3-4.2,11.3-9,13.4L38.2,596.1z"/>
	</defs>
	<clipPath id="SVGID_4_">
		<use xlink:href="#SVGID_3_"  style="overflow:visible;"/>
	</clipPath>
	<g class="st4">
		<defs>
			<rect id="SVGID_5_" x="33.1" y="403.3" width="933.8" height="193.5"/>
		</defs>
		<clipPath id="SVGID_6_">
			<use xlink:href="#SVGID_5_"  style="overflow:visible;"/>
		</clipPath>
		<rect x="30.4" y="400.6" class="st5" width="156.6" height="198.8"/>
	</g>
</g>
</svg>
